<svg xmlns="http://www.w3.org/2000/svg" viewBox="0 0 108 108"><defs><linearGradient id="g" x1="0" y1="0" x2="1" y2="1"><stop offset="0" stop-color="#D08306"/><stop offset="1" stop-color="#633E03"/></linearGradient></defs><rect width="108" height="108" rx="26" fill="url(#g)"/><g transform="translate(28.8 28.8) scale(2.1)"><path fill="#D9D9D9" d="M9,3 l-1.8,2 H4 a2,2 0 0 0 -2,2 v11 a2,2 0 0 0 2,2 h16 a2,2 0 0 0 2,-2 V7 a2,2 0 0 0 -2,-2 h-3.2 L15,3 z M12,8 a4.5,4.5 0 1 1 0,9 a4.5,4.5 0 0 1 0,-9 z"/></g></svg>