<svg xmlns="http://www.w3.org/2000/svg" viewBox="0 0 108 108"><defs><linearGradient id="g" x1="0" y1="0" x2="1" y2="1"><stop offset="0" stop-color="#CA390D"/><stop offset="1" stop-color="#601B06"/></linearGradient></defs><rect width="108" height="108" rx="26" fill="url(#g)"/><g transform="translate(28.8 28.8) scale(2.1)"><path fill="#FFE2B2" d="M12,2 c1,4 4,5 4,9 a4,4 0 0 1 -8,0 c0,-1.5 0.5,-2.5 1,-3.5 c0.3,1 1,1.8 2,2 c-0.3,-2 -0.5,-5 1,-7.5 z M6,13 a6,6 0 0 0 12,0 c0,4 -2,9 -6,9 s-6,-5 -6,-9 z"/></g></svg>